HIERARCHY
ROOT Hips
{
	OFFSET 0.00000 0.00000 0.00000
	CHANNELS 6 Xposition Yposition Zposition Zrotation Yrotation Xrotation 
	JOINT LHipJoint
	{
		OFFSET 0 0 0
		CHANNELS 3 Zrotation Yrotation Xrotation
		JOINT LeftUpLeg
		{
			OFFSET 1.57358 -1.76629 0.73362
			CHANNELS 3 Zrotation Yrotation Xrotation
			JOINT LeftLeg
			{
				OFFSET 2.40600 -6.61045 0.00000
				CHANNELS 3 Zrotation Yrotation Xrotation
				JOINT LeftFoot
				{
					OFFSET 2.66168 -7.31291 0.00000
					CHANNELS 3 Zrotation Yrotation Xrotation
					JOINT LeftToeBase
					{
						OFFSET 0.20870 -0.57341 2.12506
						CHANNELS 3 Zrotation Yrotation Xrotation
						End Site
						{
							OFFSET 0.00000 -0.00000 1.10557
						}
					}
				}
			}
		}
	}
	JOINT RHipJoint
	{
		OFFSET 0 0 0
		CHANNELS 3 Zrotation Yrotation Xrotation
		JOINT RightUpLeg
		{
			OFFSET -1.49299 -1.76629 0.73362
			CHANNELS 3 Zrotation Yrotation Xrotation
			JOINT RightLeg
			{
				OFFSET -2.43663 -6.69460 0.00000
				CHANNELS 3 Zrotation Yrotation Xrotation
				JOINT RightFoot
				{
					OFFSET -2.62959 -7.22474 0.00000
					CHANNELS 3 Zrotation Yrotation Xrotation
					JOINT RightToeBase
					{
						OFFSET -0.25784 -0.70841 2.21862
						CHANNELS 3 Zrotation Yrotation Xrotation
						End Site
						{
							OFFSET -0.00000 -0.00000 1.16452
						}
					}
				}
			}
		}
	}
	JOINT LowerBack
	{
		OFFSET 0 0 0
		CHANNELS 3 Zrotation Yrotation Xrotation
		JOINT Spine
		{
			OFFSET -0.00034 2.12399 -0.25450
			CHANNELS 3 Zrotation Yrotation Xrotation
			JOINT Spine1
			{
				OFFSET 0.05594 2.14379 -0.03318
				CHANNELS 3 Zrotation Yrotation Xrotation
				JOINT Neck
				{
					OFFSET 0 0 0
					CHANNELS 3 Zrotation Yrotation Xrotation
					JOINT Neck1
					{
						OFFSET -0.09835 1.62725 0.24211
						CHANNELS 3 Zrotation Yrotation Xrotation
						JOINT Head
						{
							OFFSET 0.10849 1.66041 -0.22648
							CHANNELS 3 Zrotation Yrotation Xrotation
							End Site
							{
								OFFSET 0.04385 1.68267 -0.10541
							}
						}
					}
				}
				JOINT LeftShoulder
				{
					OFFSET 0 0 0
					CHANNELS 3 Zrotation Yrotation Xrotation
					JOINT LeftArm
					{
						OFFSET 3.29108 0.79398 -0.68179
						CHANNELS 3 Zrotation Yrotation Xrotation
						JOINT LeftForeArm
						{
							OFFSET 5.15310 -0.00000 -0.00000
							CHANNELS 3 Zrotation Yrotation Xrotation
							JOINT LeftHand
							{
								OFFSET 3.75138 -0.00000 -0.00000
								CHANNELS 3 Zrotation Yrotation Xrotation
								JOINT LeftFingerBase
								{
									OFFSET 0 0 0
									CHANNELS 3 Zrotation Yrotation Xrotation
									JOINT LeftHandIndex1
									{
										OFFSET 0.52917 -0.00000 0.00000
										CHANNELS 3 Zrotation Yrotation Xrotation
										End Site
										{
											OFFSET 0.42663 -0.00000 0.00000
										}
									}
								}
								JOINT LThumb
								{
									OFFSET 0 0 0
									CHANNELS 3 Zrotation Yrotation Xrotation
									End Site
									{
										OFFSET 0.43315 -0.00000 0.43315
									}
								}
							}
						}
					}
				}
				JOINT RightShoulder
				{
					OFFSET 0 0 0
					CHANNELS 3 Zrotation Yrotation Xrotation
					JOINT RightArm
					{
						OFFSET -3.07414 1.06285 -0.44338
						CHANNELS 3 Zrotation Yrotation Xrotation
						JOINT RightForeArm
						{
							OFFSET -5.29613 -0.00000 0.00000
							CHANNELS 3 Zrotation Yrotation Xrotation
							JOINT RightHand
							{
								OFFSET -3.76144 -0.00000 -0.00000
								CHANNELS 3 Zrotation Yrotation Xrotation
								JOINT RightFingerBase
								{
									OFFSET 0 0 0
									CHANNELS 3 Zrotation Yrotation Xrotation
									JOINT RightHandIndex1
									{
										OFFSET -0.74732 -0.00000 0.00000
										CHANNELS 3 Zrotation Yrotation Xrotation
										End Site
										{
											OFFSET -0.60251 -0.00000 0.00000
										}
									}
								}
								JOINT RThumb
								{
									OFFSET 0 0 0
									CHANNELS 3 Zrotation Yrotation Xrotation
									End Site
									{
										OFFSET -0.61171 -0.00000 0.61171
									}
								}
							}
						}
					}
				}
			}
		}
	}
}
MOTION
Frames: 6
Frame Time: .0083333
1.718300 17.707300 -27.632700 3.010500 -3.701500 -0.079600 0.000000 0.000000 0.000000 -25.685400 -3.679200 -11.485500 1.301900 7.228400 20.393800 0.140700 -2.270100 -6.661400 0.114600 2.182700 6.011000 0.000000 0.000000 0.000000 17.123700 3.132200 -13.955800 -11.533900 -18.186600 64.503700 0.138100 -8.770500 2.986900 -0.009600 -0.632000 1.736700 -3.077100 1.192900 6.484400 1.094400 1.402700 0.740400 2.733300 0.740100 -2.972900 -8.480100 -3.087900 -15.089200 4.696100 -3.192700 17.928800 2.603900 -1.621800 8.272600 -0.000000 -0.000000 0.000000 -90.528900 -0.259900 15.596800 11.228800 -18.638200 -1.848400 -0.000000 -0.000000 14.764900 15.860000 28.525700 7.726400 -7.125000 0.000000 -0.000000 -16.739900 58.657600 -5.691300 -0.000000 -0.000000 0.000000 87.601200 1.347800 12.367100 -15.306400 24.571200 -3.352300 0.000000 0.000000 11.195200 -15.620400 13.003900 -3.599900 7.125000 -0.000000 -0.000000 8.065100 -16.580200 5.483400
1.726200 17.698200 -27.501600 3.001300 -3.525800 -0.044700 0.000000 0.000000 0.000000 -25.792200 -3.726600 -11.173000 1.339400 7.327700 20.690100 0.166300 -2.330200 -7.247800 0.079700 1.820800 5.010700 0.000000 0.000000 0.000000 16.946200 3.080600 -15.409200 -11.806700 -18.307800 65.375000 0.184300 -9.001800 1.878100 -0.003700 -0.392100 1.077300 -3.055200 0.974800 6.430700 1.171600 1.117600 0.708600 2.827800 0.598600 -2.956600 -8.598600 -2.722100 -14.853300 4.967500 -2.733600 17.781000 2.769800 -1.387000 8.152400 -0.000000 0.000000 0.000000 -90.513500 -0.501600 15.393000 11.316700 -18.772100 -1.876600 -0.000000 -0.000000 15.369100 140.278100 -81.411300 -140.595400 -7.125000 0.000000 -0.000000 -155.467200 -53.713900 174.486100 -0.000000 0.000000 0.000000 87.579900 1.007500 13.146100 -15.834100 25.295100 -3.574800 0.000000 0.000000 9.700800 -14.396800 9.500500 -2.426200 7.125000 -0.000000 -0.000000 8.970400 -20.233600 5.380000
1.735200 17.681300 -27.360100 2.999300 -3.592100 -0.138400 0.000000 0.000000 0.000000 -25.904300 -3.790300 -10.728200 1.395100 7.472300 21.122200 0.201300 -2.165200 -8.000000 0.070900 1.717800 4.726400 0.000000 0.000000 0.000000 16.767600 3.228700 -16.596400 -12.028600 -18.402700 66.079500 0.224300 -9.174900 0.668400 -0.018600 -0.880800 2.420800 -3.032700 0.887900 6.419300 1.242400 1.006300 0.764600 2.899100 0.541300 -2.885100 -8.474900 -2.750000 -14.698200 4.641900 -2.742700 17.517900 2.636400 -1.413900 8.032100 0.000000 0.000000 0.000000 -90.453800 -0.783300 15.238700 11.250200 -18.670700 -1.855200 -0.000000 -0.000000 15.441500 92.456900 -85.534800 -92.464400 -7.125000 0.000000 -0.000000 -149.651900 -59.427500 168.669200 0.000000 0.000000 0.000000 87.579100 0.737200 12.766500 -15.589900 24.961400 -3.471100 0.000000 0.000000 10.829100 -14.885800 11.701800 -3.085900 7.125000 -0.000000 -0.000000 8.581400 -17.962700 5.579700
1.740800 17.663100 -27.218600 3.058500 -3.797300 -0.283900 0.000000 0.000000 0.000000 -26.065700 -3.664800 -10.312500 1.454100 7.622100 21.571900 0.235600 -1.981200 -8.693200 0.064300 1.636400 4.501900 0.000000 0.000000 0.000000 16.530600 3.514600 -17.701200 -12.202400 -18.474900 66.628800 0.247000 -9.172900 -0.498600 -0.065100 -1.646700 4.530300 -3.183400 0.874500 6.637100 1.345800 0.974000 0.642800 3.091600 0.533800 -3.135200 -8.448300 -2.768400 -14.329900 4.303800 -2.741300 17.619200 2.521200 -1.450100 7.996400 0.000000 0.000000 0.000000 -90.443100 -0.543800 15.949900 11.239400 -18.654300 -1.851800 -0.000000 -0.000000 13.648900 81.127300 79.459600 80.977500 -7.125000 0.000000 -0.000000 -156.681300 -61.317500 170.443200 0.000000 0.000000 0.000000 87.549800 0.242100 12.736600 -15.665000 25.064300 -3.502800 0.000000 0.000000 10.709500 -14.152400 8.932500 -2.242100 7.125000 -0.000000 -0.000000 9.162800 -20.823200 5.375100
1.745100 17.643900 -27.086900 3.226400 -3.793100 -0.379800 0.000000 0.000000 0.000000 -26.342700 -3.613100 -9.976800 1.514900 7.772600 22.025500 0.275600 -1.964100 -9.426900 0.056200 1.529900 4.208100 0.000000 0.000000 0.000000 16.181700 3.564100 -18.898300 -12.315600 -18.520900 66.985900 0.240900 -8.794700 -1.616700 -0.077600 -1.796900 4.944800 -3.387900 0.811200 6.784300 1.383800 0.871000 0.608800 3.255200 0.488100 -3.248500 -8.413700 -2.695500 -14.198100 4.166700 -2.634800 17.705900 2.483000 -1.413300 7.992500 -0.000000 -0.000000 0.000000 -90.367300 -0.632300 16.412000 11.211600 -18.611800 -1.842900 -0.000000 -0.000000 12.922700 80.778300 73.162400 80.372800 -7.125000 0.000000 -0.000000 -165.123900 -62.631100 173.552600 -0.000000 -0.000000 0.000000 87.597200 0.135200 12.409700 -15.626300 25.011300 -3.486400 0.000000 0.000000 10.660200 -12.764900 3.894000 -0.881400 7.125000 -0.000000 -0.000000 10.462000 -25.964500 4.902900
1.748800 17.628200 -26.957000 3.339200 -3.583700 -0.450900 0.000000 0.000000 0.000000 -26.557800 -3.676500 -9.639500 1.572500 7.912200 22.447800 0.318000 -2.071500 -10.133500 0.041400 1.313400 3.611500 0.000000 0.000000 0.000000 15.925600 3.481000 -20.091200 -12.367300 -18.541600 67.148400 0.216700 -8.223400 -2.836900 -0.062700 -1.615500 4.444300 -3.510900 0.642500 6.927600 1.436500 0.634400 0.658500 3.402000 0.371900 -3.259700 -8.451500 -2.643400 -14.542400 4.083200 -2.512300 18.056000 2.476200 -1.367400 8.162500 0.000000 0.000000 0.000000 -90.286600 -1.210500 15.985600 11.263400 -18.690900 -1.859500 -0.000000 -0.000000 14.776600 31.766800 57.483300 27.571400 -7.125000 0.000000 -0.000000 -97.212100 -83.048600 104.211600 0.000000 0.000000 0.000000 87.588700 0.325300 11.742300 -15.322700 24.593700 -3.359100 0.000000 0.000000 10.897800 -12.483800 4.642900 -1.026700 7.125000 -0.000000 -0.000000 10.613900 -25.214100 5.165600
